<svg width="58" height="59" viewBox="0 0 58 59" fill="none" xmlns="http://www.w3.org/2000/svg">
<rect y="0.5" width="58" height="58" rx="22" fill="#EE1D23"/>
<path d="M23.6625 16.9751H20.0375C18.0838 16.9751 16.5 18.5589 16.5 20.5126V24.1376C16.5 26.0913 18.0838 27.6751 20.0375 27.6751H23.6625C25.6162 27.6751 27.2 26.0913 27.2 24.1376V20.5126C27.2 18.5589 25.6162 16.9751 23.6625 16.9751Z" fill="white"/>
<path opacity="0.3" d="M37.9625 17.0127H34.3375C32.3838 17.0127 30.8 18.5965 30.8 20.5502V24.1752C30.8 26.1289 32.3838 27.7127 34.3375 27.7127H37.9625C39.9162 27.7127 41.5 26.1289 41.5 24.1752V20.5502C41.5 18.5965 39.9162 17.0127 37.9625 17.0127Z" fill="white"/>
<path opacity="0.3" d="M23.6625 31.2876H20.0375C18.0838 31.2876 16.5 32.8714 16.5 34.8251V38.4501C16.5 40.4038 18.0838 41.9876 20.0375 41.9876H23.6625C25.6162 41.9876 27.2 40.4038 27.2 38.4501V34.8251C27.2 32.8714 25.6162 31.2876 23.6625 31.2876Z" fill="white"/>
<path d="M37.9625 31.3252H34.3375C32.3838 31.3252 30.8 32.909 30.8 34.8627V38.4877C30.8 40.4414 32.3838 42.0252 34.3375 42.0252H37.9625C39.9162 42.0252 41.5 40.4414 41.5 38.4877V34.8627C41.5 32.909 39.9162 31.3252 37.9625 31.3252Z" fill="white"/>
</svg>
