<?xml version="1.0" standalone="no"?>
<!DOCTYPE svg PUBLIC "-//W3C//DTD SVG 20010904//EN"
 "http://www.w3.org/TR/2001/REC-SVG-20010904/DTD/svg10.dtd">
<svg version="1.0" xmlns="http://www.w3.org/2000/svg"
 width="1001.000000pt" height="1001.000000pt" viewBox="0 0 1001.000000 1001.000000"
 preserveAspectRatio="xMidYMid meet">
<metadata>
Created by potrace 1.14, written by Peter Selinger 2001-2017
</metadata>
<g transform="translate(0.000000,1001.000000) scale(0.100000,-0.100000)"
fill="#000000" stroke="none">
<path d="M3018 8628 c7 -9 22 -15 33 -13 10 2 19 0 19 -4 0 -5 -13 -8 -30 -7
-16 0 -30 5 -30 9 0 5 -15 6 -32 2 -25 -5 -29 -4 -18 4 9 7 10 11 3 11 -6 0
-14 -4 -18 -9 -3 -5 -16 -8 -30 -5 -13 2 -27 -1 -31 -7 -4 -7 -3 -9 4 -6 13 9
42 -2 42 -15 0 -6 -5 -6 -14 1 -16 13 -37 11 -48 -4 -5 -6 -8 -5 -8 4 0 10 -3
11 -14 2 -10 -9 -15 -8 -19 2 -4 10 2 13 19 11 13 -1 24 2 24 6 0 17 -54 3
-61 -16 -6 -14 -8 -15 -9 -4 -2 8 -2 19 -1 23 1 5 -3 6 -9 2 -6 -3 -8 -11 -5
-16 9 -13 -14 -15 -88 -6 -20 3 -39 1 -42 -3 -3 -5 -13 -9 -23 -9 -61 -2 -80
-6 -76 -13 3 -5 10 -6 15 -3 5 3 6 -1 3 -10 -6 -14 -10 -13 -30 6 -13 12 -27
19 -31 16 -3 -4 -2 -7 4 -7 6 0 13 -7 17 -15 7 -19 -14 -15 -32 5 -9 12 -12
12 -10 1 2 -7 -3 -16 -11 -19 -8 -2 -11 0 -8 5 3 5 -1 10 -9 10 -9 0 -13 -6
-10 -14 4 -9 2 -11 -6 -6 -19 11 -48 11 -55 0 -3 -6 -1 -7 4 -4 6 4 13 1 16
-6 6 -16 -49 -11 -73 6 -12 9 -13 9 -2 -3 14 -16 16 -34 3 -25 -6 3 -15 -3
-21 -12 -8 -13 -10 -14 -9 -3 1 8 1 22 0 30 -1 13 -3 13 -10 1 -5 -8 -8 -22
-6 -31 2 -9 -3 -17 -10 -17 -7 0 -11 9 -9 21 3 14 -1 10 -10 -9 -12 -23 -15
-25 -16 -11 0 19 0 19 -14 1 -13 -18 -13 -18 -24 1 -6 10 -12 13 -12 7 0 -7
-6 -12 -12 -10 -7 1 -12 -6 -10 -15 4 -27 -17 -32 -27 -6 -7 17 -10 18 -10 6
-1 -26 -38 -43 -59 -26 -13 11 -14 11 -7 -1 6 -11 4 -13 -9 -8 -11 4 -15 3
-11 -4 4 -6 14 -8 22 -5 8 3 11 1 8 -4 -6 -10 -33 -9 -51 3 -7 4 -10 -2 -9
-17 3 -21 -1 -24 -22 -20 -15 3 -22 1 -18 -6 3 -5 2 -10 -4 -10 -5 0 -12 6
-14 13 -4 10 -6 10 -6 0 -1 -7 -6 -13 -12 -13 -5 0 -7 5 -3 12 4 7 3 8 -5 4
-9 -6 -9 -11 -1 -21 9 -11 6 -13 -14 -11 -15 2 -26 -1 -26 -7 0 -5 -9 -7 -19
-4 -14 3 -18 1 -14 -10 3 -7 2 -13 -3 -12 -25 4 -36 -2 -30 -17 5 -14 4 -15
-9 -4 -18 15 -20 0 -3 -20 11 -12 10 -12 -5 -1 -9 8 -20 11 -24 8 -3 -4 -13
-1 -21 6 -13 10 -14 9 -3 -11 12 -22 11 -23 -8 -12 -26 13 -27 7 -3 -16 16
-17 16 -18 0 -11 -20 7 -50 -1 -43 -13 2 -4 -11 -6 -31 -5 -23 1 -31 -2 -24
-9 5 -5 10 -14 10 -20 0 -6 -5 -5 -11 1 -13 13 -39 6 -39 -9 0 -6 8 -4 18 3
15 13 16 12 3 -4 -11 -13 -17 -15 -28 -6 -11 9 -17 9 -26 0 -9 -10 -8 -11 6
-6 10 4 17 2 17 -4 0 -6 -5 -11 -11 -11 -8 0 -7 -6 2 -17 11 -15 11 -16 -1 -5
-19 16 -33 15 -27 -2 4 -10 1 -13 -8 -9 -8 3 -12 10 -8 16 3 6 1 7 -6 3 -6 -4
-10 -15 -9 -24 2 -10 -3 -16 -11 -14 -9 2 -11 -3 -7 -15 6 -17 5 -17 -8 0 -17
21 -27 22 -19 1 5 -14 3 -15 -15 -5 -18 10 -21 9 -16 -4 4 -8 11 -15 18 -15 6
0 4 -4 -4 -10 -9 -5 -19 -5 -27 2 -11 8 -12 7 -6 -7 5 -15 3 -17 -12 -12 -15
6 -16 5 -6 -7 9 -11 9 -16 0 -22 -7 -4 -9 -3 -6 3 4 6 0 14 -9 17 -9 3 -12 2
-9 -5 4 -6 -1 -16 -11 -23 -11 -9 -15 -20 -11 -32 7 -18 6 -18 -9 1 -16 20
-16 20 -12 -1 4 -17 1 -20 -18 -18 -13 1 -22 -2 -18 -7 3 -5 9 -7 14 -4 5 3
12 0 16 -6 4 -7 3 -9 -3 -6 -6 4 -21 -5 -33 -18 -13 -14 -30 -25 -37 -25 -8 0
-12 -4 -8 -9 3 -5 0 -13 -6 -17 -8 -4 -9 -3 -5 4 4 7 2 12 -3 12 -6 0 -11 -8
-11 -19 0 -10 -7 -25 -17 -32 -15 -13 -15 -12 -4 9 7 13 11 26 8 28 -2 2 -10
-8 -17 -22 -12 -22 -12 -27 0 -34 11 -7 10 -9 -7 -7 -12 0 -20 4 -17 8 2 4 -1
11 -8 15 -7 4 -10 4 -6 -1 4 -4 2 -15 -5 -23 -9 -13 -9 -14 1 -8 6 4 12 2 12
-3 0 -6 -4 -12 -10 -12 -5 -1 -15 -2 -22 -3 -15 -1 -22 -23 -9 -31 7 -4 9 1 5
12 -5 15 -4 15 4 3 12 -16 6 -33 -9 -25 -5 4 -9 1 -9 -5 0 -6 -5 -8 -11 -4 -7
4 -9 0 -5 -14 4 -11 2 -23 -3 -27 -6 -3 -8 0 -5 9 4 10 0 14 -13 12 -10 -2
-18 -7 -18 -12 -1 -5 -7 -20 -14 -33 -7 -13 -9 -21 -4 -18 5 4 10 0 10 -8 0
-10 -5 -11 -17 -5 -14 8 -16 5 -13 -13 3 -15 -3 -26 -19 -36 -22 -13 -23 -13
-5 6 14 16 14 20 2 20 -8 0 -12 -4 -9 -8 2 -4 -1 -11 -7 -15 -9 -5 -7 -11 5
-19 15 -11 15 -13 1 -19 -9 -3 -13 -2 -10 4 3 6 2 10 -4 10 -5 0 -13 -9 -16
-20 -4 -12 -11 -17 -18 -13 -7 4 -5 -2 3 -12 14 -17 13 -18 -2 -12 -13 4 -16
1 -13 -14 2 -12 -2 -19 -11 -19 -8 0 -12 -5 -9 -10 4 -6 11 -7 17 -4 7 4 8 2
4 -4 -4 -6 -13 -9 -20 -6 -9 4 -13 -2 -11 -19 2 -14 -2 -24 -10 -24 -7 0 -11
7 -8 16 3 12 2 12 -7 -2 -14 -22 -5 -38 18 -31 15 5 15 4 -1 -6 -9 -6 -14 -16
-11 -22 4 -7 2 -8 -5 -4 -6 4 -9 11 -7 15 3 4 -1 8 -9 8 -11 0 -12 -5 -3 -21
10 -19 9 -19 -5 -8 -13 11 -15 11 -13 0 1 -7 6 -19 10 -27 6 -9 5 -12 -1 -8
-5 3 -15 -3 -23 -13 -8 -10 -18 -17 -24 -14 -6 3 0 -4 14 -15 l25 -21 -25 9
c-22 8 -25 6 -27 -17 0 -15 6 -32 15 -40 10 -8 4 -7 -11 3 l-28 16 12 -23 c11
-21 11 -22 -4 -10 -13 11 -15 10 -10 -7 3 -12 10 -18 17 -14 6 3 4 -2 -5 -13
-9 -10 -14 -26 -12 -34 4 -13 3 -13 -6 0 -6 9 -7 18 0 26 7 8 6 14 -1 19 -6 4
-10 3 -9 -2 1 -4 0 -11 -1 -15 -1 -5 -4 -12 -5 -18 -1 -5 -4 -12 -5 -15 -1 -3
-3 -11 -4 -17 -1 -7 -8 -12 -15 -10 -7 1 -10 -2 -6 -8 5 -8 11 -8 21 1 7 6 11
16 7 22 -3 6 -1 7 5 3 13 -8 -6 -46 -23 -46 -5 0 -3 -5 5 -11 12 -8 10 -10
-10 -5 -22 4 -23 4 -7 -8 24 -18 21 -29 -5 -21 -16 4 -19 3 -9 -3 9 -7 10 -12
2 -16 -6 -4 -9 -18 -7 -31 4 -24 -8 -43 -17 -28 -2 5 -2 1 1 -7 3 -8 6 -29 7
-47 2 -27 0 -31 -15 -23 -12 6 -17 5 -17 -5 0 -8 4 -12 8 -10 4 3 10 -2 13
-11 3 -8 2 -13 -3 -10 -5 3 -12 -1 -15 -10 -3 -8 -11 -12 -17 -8 -8 4 -9 3 -5
-5 6 -8 11 -9 20 -2 10 9 13 3 11 -27 -1 -26 -6 -37 -17 -36 -11 1 -15 -10
-16 -38 -1 -27 2 -37 10 -32 7 4 8 3 4 -5 -4 -6 -12 -8 -18 -5 -6 4 -8 2 -4
-4 3 -5 3 -12 -1 -15 -5 -2 -3 -3 4 -1 17 4 24 -8 12 -23 -6 -7 -9 -22 -6 -32
4 -15 1 -18 -12 -14 -9 4 -13 3 -9 -2 4 -4 3 -14 -3 -21 -9 -10 -7 -15 5 -20
18 -7 22 -25 5 -22 -6 2 -14 -4 -16 -12 -4 -12 -3 -13 5 -1 8 11 12 10 21 -7
8 -15 8 -23 -1 -28 -7 -4 -8 -3 -4 4 4 7 3 12 -2 12 -6 0 -13 -7 -16 -16 -3
-8 -2 -13 3 -10 5 3 14 -1 21 -9 11 -13 10 -14 -3 -10 -8 4 -18 2 -22 -4 -3
-6 0 -11 7 -11 8 0 14 -9 15 -20 1 -11 -3 -20 -8 -20 -6 0 -8 4 -4 9 3 5 2 12
-2 14 -5 3 -8 -22 -7 -54 1 -48 -2 -59 -13 -55 -8 3 -11 1 -8 -5 4 -5 16 -7
27 -3 18 5 19 4 7 -9 -8 -8 -18 -12 -23 -9 -5 3 -5 -1 0 -9 4 -8 10 -23 11
-34 2 -10 7 -22 11 -25 12 -9 12 -70 -1 -70 -7 0 -6 -4 3 -10 12 -8 12 -10 -5
-11 -17 -1 -16 -2 4 -8 21 -6 22 -8 9 -22 -12 -12 -13 -17 -2 -27 13 -12 8
-42 -9 -53 -5 -3 -1 -9 8 -12 10 -5 14 -3 9 5 -4 7 -3 8 5 4 6 -4 9 -12 5 -17
-3 -5 -9 -7 -14 -4 -5 3 -12 0 -16 -6 -4 -7 -3 -9 2 -6 6 3 16 2 24 -4 12 -7
11 -9 -5 -9 -16 0 -17 -2 -5 -10 9 -6 19 -5 29 3 12 10 12 9 0 -11 -12 -20
-12 -24 1 -32 10 -6 11 -10 3 -10 -7 0 -13 -7 -13 -16 0 -8 4 -13 8 -10 5 3 9
-1 9 -9 0 -8 -5 -11 -11 -8 -6 3 0 -7 14 -23 14 -16 18 -23 10 -16 -19 17 -27
15 -27 -5 0 -24 17 -44 30 -36 6 3 7 1 3 -6 -4 -6 -3 -18 4 -26 8 -10 8 -15
-1 -21 -8 -5 -10 -3 -4 7 5 8 4 10 0 6 -11 -9 -16 -39 -7 -33 4 2 13 -2 20
-10 7 -8 9 -14 4 -14 -5 0 -9 -11 -9 -25 0 -21 2 -23 13 -14 8 7 17 9 21 5 3
-3 1 -6 -5 -6 -7 0 -12 -6 -12 -14 0 -8 -6 -17 -12 -20 -7 -2 -2 -4 11 -3 19
2 24 -3 26 -25 2 -15 0 -30 -5 -33 -5 -3 -7 -12 -4 -20 4 -8 11 -12 18 -8 6 4
4 -2 -4 -12 -13 -17 -13 -18 1 -13 13 5 16 2 12 -15 -5 -22 -5 -22 11 -2 17
20 17 20 7 -2 -15 -29 -14 -43 3 -43 8 0 13 -10 12 -22 -1 -14 4 -22 12 -20 8
1 11 -2 7 -8 -3 -6 -10 -8 -15 -5 -5 3 -12 0 -16 -7 -4 -7 -3 -10 1 -5 11 9
45 -22 39 -36 -9 -26 -11 -76 -2 -71 5 3 7 12 5 18 -3 7 1 13 8 13 14 0 10
-20 -9 -47 -8 -12 -8 -13 4 -2 22 19 32 14 28 -15 -2 -20 4 -33 22 -47 14 -10
17 -16 8 -13 -12 4 -15 2 -11 -9 3 -7 -1 -14 -8 -14 -7 0 -9 -3 -6 -6 4 -4 14
-1 23 7 16 13 17 12 12 -9 -5 -16 -1 -25 14 -33 19 -10 19 -11 2 -37 -16 -24
-16 -25 -1 -13 14 11 18 11 24 -5 4 -11 14 -24 22 -31 9 -6 16 -17 16 -25 1
-7 7 -12 14 -10 7 1 10 -2 6 -8 -3 -5 -3 -16 2 -22 12 -21 12 -39 0 -31 -8 5
-8 2 0 -9 7 -8 9 -19 5 -24 -4 -4 1 -3 10 4 14 11 16 10 11 -7 -3 -12 -1 -21
6 -21 6 0 11 -8 11 -17 0 -15 -2 -16 -10 -3 -5 8 -10 10 -10 4 0 -6 11 -21 25
-34 13 -12 22 -26 20 -30 -3 -4 3 -14 12 -21 9 -8 14 -9 10 -3 -3 6 0 11 8 11
8 0 13 -3 10 -5 -3 -3 1 -12 8 -21 11 -14 10 -14 -5 -2 -17 13 -26 2 -10 -13
4 -4 7 -11 8 -14 0 -4 4 -15 9 -25 6 -14 10 -15 21 -6 12 9 13 9 8 -4 -8 -21
30 -62 48 -52 10 6 10 5 1 -5 -10 -11 -16 -10 -33 5 -26 24 -26 11 0 -15 12
-12 18 -25 15 -29 -2 -5 3 -8 13 -7 11 0 16 -6 16 -17 -2 -13 3 -16 20 -12 17
5 18 4 6 -4 -14 -10 -7 -15 13 -12 5 1 6 -3 2 -9 -3 -5 -1 -10 6 -10 7 0 10
-3 7 -6 -4 -3 -18 2 -32 11 -14 10 -26 15 -26 12 0 -2 18 -16 41 -31 28 -19
39 -32 35 -43 -5 -12 -3 -13 6 -5 10 8 13 4 15 -15 1 -19 -1 -22 -8 -12 -5 8
-9 9 -9 3 0 -12 46 -54 53 -48 2 3 7 -2 11 -11 4 -11 2 -14 -6 -9 -7 5 -8 3
-4 -5 5 -7 14 -10 22 -7 8 3 13 0 11 -7 -1 -7 7 -11 18 -10 11 1 14 0 8 -3 -9
-4 -6 -14 9 -34 12 -16 25 -27 29 -25 9 6 6 -22 -4 -31 -4 -4 -7 -12 -7 -18 0
-6 5 -4 10 4 6 10 10 11 10 3 0 -7 9 -22 20 -33 18 -18 14 -26 -13 -21 -5 1
-6 -3 -2 -8 3 -6 12 -8 19 -5 8 3 17 0 21 -5 3 -6 10 -9 14 -6 5 2 7 -9 6 -25
-1 -17 2 -30 7 -30 6 0 8 7 5 15 -4 8 -2 17 4 20 5 4 8 1 7 -7 -2 -7 3 -12 11
-10 11 2 12 0 3 -10 -7 -10 -8 -18 0 -28 8 -13 9 -13 5 1 -3 9 1 16 8 16 9 0
11 -7 5 -21 -4 -12 -14 -20 -22 -18 -7 2 -9 0 -5 -4 11 -11 38 -14 31 -3 -3 5
0 9 7 9 6 0 9 -8 7 -18 -4 -15 0 -18 18 -16 13 1 22 -2 18 -7 -3 -5 -10 -6
-16 -3 -7 5 -8 2 -4 -5 5 -7 15 -10 23 -6 13 5 14 3 3 -10 -10 -12 -11 -18 -1
-28 10 -9 11 -9 6 3 -4 11 1 16 17 17 18 2 20 0 8 -8 -12 -8 -12 -12 -2 -16
10 -4 10 -8 1 -19 -10 -12 -9 -13 5 -8 9 3 16 11 16 17 0 6 3 7 6 4 4 -4 1
-14 -7 -24 -8 -10 -9 -14 -2 -10 12 8 37 -26 27 -36 -3 -3 3 -4 13 -4 10 1 22
7 26 12 5 6 5 -1 2 -14 -6 -19 -4 -23 9 -18 9 4 15 3 15 -1 -3 -21 2 -32 14
-26 10 6 10 4 0 -7 -7 -7 -13 -18 -13 -24 0 -5 5 -3 10 5 7 11 10 11 10 2 0
-7 5 -10 12 -6 6 4 8 3 4 -4 -3 -6 -2 -13 4 -17 5 -3 10 -1 10 6 0 7 3 10 6 7
3 -4 0 -16 -6 -28 -8 -15 -8 -20 -1 -16 6 4 11 2 11 -3 0 -6 4 -10 9 -8 5 1
17 -7 26 -18 9 -11 13 -13 9 -5 -7 13 -5 13 8 2 10 -8 14 -20 11 -29 -4 -11
-2 -14 5 -9 16 10 15 -6 0 -24 -11 -12 -10 -12 2 -3 10 7 21 8 30 3 8 -5 17
-7 21 -4 4 2 5 -5 2 -16 -6 -23 6 -26 26 -7 9 8 12 8 7 0 -3 -6 2 -19 11 -29
17 -17 17 -18 0 -11 -10 4 -21 7 -23 7 -3 0 -2 5 2 12 4 7 3 8 -5 4 -17 -11 5
-36 31 -36 10 0 16 -4 13 -10 -6 -9 8 -15 29 -11 5 1 3 -5 -4 -14 -7 -8 -10
-18 -6 -22 3 -3 6 -1 6 5 0 7 5 12 11 12 6 0 8 -7 5 -16 -4 -12 -2 -15 9 -11
8 4 17 1 21 -5 4 -7 10 -6 16 3 8 11 9 11 5 -1 -2 -8 -13 -14 -25 -14 -12 1
-19 -2 -17 -6 3 -5 16 -7 29 -6 18 2 23 -1 18 -12 -3 -10 -1 -13 6 -8 16 9 15
-7 0 -22 -7 -7 -9 -12 -6 -12 4 0 14 7 22 16 15 14 16 14 16 -5 0 -12 5 -21
11 -21 6 0 9 -6 6 -13 -3 -8 1 -14 8 -14 8 0 11 7 7 16 -5 14 -4 14 10 1 12
-12 13 -18 4 -29 -8 -12 -8 -13 2 -7 6 4 12 2 12 -3 0 -6 5 -11 11 -11 5 0 7
5 3 12 -4 7 -3 8 5 4 6 -4 9 -12 6 -17 -4 -5 0 -9 7 -9 10 0 9 -3 -2 -11 -12
-8 -10 -9 8 -4 22 6 27 -3 23 -45 -2 -12 0 -13 7 -1 8 11 11 11 16 0 3 -8 3
-3 0 10 -4 16 -3 21 5 17 6 -4 11 -14 11 -22 0 -8 5 -14 10 -14 6 0 10 -10 11
-22 0 -22 1 -22 9 -3 8 19 10 15 14 -17 0 -7 7 -14 14 -14 25 -3 27 -5 12 -15
-13 -9 -12 -10 2 -5 10 3 26 9 35 13 16 6 16 5 4 -10 -8 -10 -11 -20 -7 -24 3
-3 6 -1 6 6 0 9 4 8 15 -3 17 -16 20 -30 5 -21 -6 3 -7 -1 -3 -10 4 -11 8 -13
12 -6 5 7 15 4 29 -10 13 -11 31 -21 41 -22 13 -1 18 -8 16 -23 -1 -16 2 -20
17 -16 19 5 26 -22 8 -31 -6 -3 -5 -4 2 -3 7 2 22 -1 33 -6 19 -9 19 -9 1 6
-18 14 -18 15 2 13 11 0 19 -4 16 -8 -2 -4 3 -14 11 -23 9 -8 17 -19 18 -23 1
-4 5 -7 10 -5 23 7 30 5 33 -12 3 -23 24 -38 42 -31 7 3 10 0 7 -5 -3 -6 -2
-10 3 -10 5 0 12 -9 15 -20 4 -15 14 -20 39 -21 30 0 31 -1 11 -9 -13 -5 -23
-13 -23 -16 0 -4 3 -4 7 -1 3 4 13 1 21 -6 13 -9 14 -9 8 0 -4 7 -2 13 3 13 6
0 11 -10 11 -21 0 -17 3 -19 13 -10 18 14 30 2 16 -16 -14 -17 3 -17 20 0 10
10 12 9 9 -3 -2 -8 -7 -19 -13 -23 -5 -5 1 -5 14 -2 14 4 21 3 18 -2 -3 -5 2
-17 13 -25 16 -14 19 -15 24 -2 3 8 2 13 -2 10 -4 -2 -14 -1 -22 4 -11 7 -9 9
8 7 12 0 41 -22 65 -46 23 -26 29 -35 12 -21 -16 14 -23 17 -16 7 8 -10 28
-28 45 -40 23 -15 27 -17 17 -4 -12 15 -12 17 3 11 9 -3 16 -10 16 -16 0 -5 6
-6 13 -2 7 5 6 0 -3 -11 -14 -17 -14 -18 7 -7 17 9 22 9 26 -3 4 -9 1 -12 -9
-8 -7 3 -14 1 -14 -5 0 -6 8 -9 18 -7 9 2 21 4 25 4 5 1 5 6 1 13 -4 7 -3 8 5
4 6 -4 9 -11 6 -16 -3 -5 -1 -12 5 -15 8 -5 8 -11 1 -19 -8 -9 -7 -13 4 -13 8
0 15 6 15 14 0 7 5 13 11 13 5 0 7 -5 3 -12 -4 -6 1 -17 11 -25 13 -8 14 -13
5 -13 -7 0 -10 -3 -7 -6 4 -4 14 -1 24 7 15 12 16 12 10 -3 -3 -10 -3 -17 1
-16 17 3 62 -15 74 -30 10 -14 10 -15 -2 -5 -17 16 -30 17 -30 3 0 -5 5 -9 12
-7 7 1 12 -3 13 -10 0 -6 4 -15 9 -20 5 -5 6 -3 2 5 -8 13 3 16 28 6 14 -5 14
-9 4 -22 -11 -13 -11 -14 0 -8 16 10 44 -12 35 -28 -4 -6 2 -4 12 4 14 11 19
12 22 3 3 -7 11 -13 19 -13 10 0 12 -5 8 -12 -5 -8 0 -7 11 2 16 14 17 13 11
-5 -6 -21 -2 -23 51 -27 7 -1 10 -5 7 -10 -3 -4 2 -8 11 -8 9 0 13 -4 10 -10
-3 -6 -1 -10 4 -10 6 0 11 5 11 12 0 6 3 8 6 5 4 -4 1 -15 -7 -24 -7 -10 -9
-15 -4 -10 4 4 17 -1 28 -10 11 -10 17 -13 14 -6 -5 7 -1 11 11 10 11 0 19 -8
18 -17 -1 -9 6 -14 16 -12 16 2 33 -14 33 -33 0 -5 9 -10 20 -10 12 -1 19 -7
17 -15 -3 -12 -1 -13 9 -3 16 16 39 17 39 2 0 -5 -4 -8 -8 -5 -5 3 -9 -1 -9
-8 0 -7 6 -13 13 -13 7 0 11 4 8 9 -3 4 -1 8 4 8 13 0 24 -29 15 -42 -3 -7 -1
-8 6 -4 7 4 9 17 6 29 -5 16 -4 18 3 8 8 -11 11 -11 16 0 3 8 3 4 0 -8 -4 -17
-1 -23 11 -23 9 0 13 5 10 10 -10 16 1 11 16 -7 10 -11 10 -14 2 -9 -8 4 -13
2 -13 -5 0 -7 8 -9 21 -6 17 4 18 3 8 -9 -10 -12 -9 -13 6 -8 13 5 16 4 11 -4
-5 -8 -2 -10 8 -6 9 3 16 11 16 17 0 6 3 7 6 4 4 -4 1 -14 -7 -24 -9 -11 -10
-14 -1 -9 11 7 17 -5 13 -27 -1 -5 3 -6 9 -2 6 3 8 10 6 14 -3 4 2 8 10 8 8 0
13 -6 10 -13 -7 -18 4 -25 25 -13 13 7 19 6 19 -1 0 -6 5 -8 12 -4 7 4 8 3 4
-4 -4 -6 -13 -9 -21 -5 -8 3 -15 0 -15 -7 0 -6 4 -9 9 -5 5 3 12 2 15 -3 3 -5
19 -7 36 -6 21 1 35 -4 45 -19 8 -11 13 -23 11 -26 -2 -3 7 -7 21 -8 20 -1 23
1 12 9 -12 8 -12 9 1 5 8 -2 14 -11 12 -21 -3 -14 1 -17 23 -16 12 1 33 -26
27 -34 -3 -5 0 -6 7 -2 9 6 9 11 0 22 -6 8 -9 17 -5 21 3 3 6 1 6 -6 0 -7 5
-9 10 -6 6 4 9 1 8 -7 -2 -8 6 -13 19 -12 12 1 24 -5 27 -13 4 -10 1 -11 -14
-3 -19 10 -40 -4 -26 -17 3 -4 6 -1 6 5 0 6 7 9 15 6 8 -4 13 -9 11 -13 -3 -4
4 -7 14 -7 10 0 17 3 15 6 -2 4 2 7 9 7 8 0 12 -7 9 -15 -5 -11 -1 -13 18 -7
23 7 23 6 5 -7 -17 -14 -16 -15 16 -14 24 1 35 -3 34 -12 -1 -19 40 -47 49
-32 3 6 1 9 -6 8 -7 -2 -14 6 -16 17 -3 18 -2 18 5 2 4 -10 12 -18 17 -18 6 0
9 -7 9 -14 -1 -8 2 -12 7 -10 4 3 13 -3 18 -12 9 -15 10 -13 6 11 -2 16 -1 25
3 21 4 -3 7 -12 7 -18 0 -7 10 -11 22 -11 13 1 20 -3 17 -7 -3 -5 6 -20 20
-34 21 -21 30 -24 45 -16 15 8 20 7 25 -5 3 -8 2 -12 -3 -9 -5 3 -12 1 -15 -4
-4 -5 1 -8 10 -7 8 1 19 8 23 15 6 10 10 9 15 -4 3 -9 12 -15 19 -12 6 2 21 1
32 -4 17 -6 17 -8 3 -8 -20 -1 -24 -16 -6 -27 7 -5 8 -3 3 6 -6 10 -4 12 8 7
10 -4 17 -1 17 5 0 6 3 8 6 5 4 -4 1 -14 -6 -22 -11 -13 -11 -16 1 -13 8 2 13
-3 11 -12 -3 -12 -1 -13 9 -2 18 17 29 15 22 -5 -5 -15 -3 -14 11 2 17 20 17
20 10 -5 -6 -23 -6 -23 11 -7 12 13 21 15 29 7 7 -5 15 -8 18 -5 3 3 10 -1 16
-8 9 -10 8 -14 -3 -14 -8 0 -11 5 -8 11 3 6 3 8 -2 4 -4 -4 -13 -3 -20 2 -8 7
-12 5 -12 -5 0 -7 3 -14 6 -13 3 0 8 -1 11 -2 22 -8 46 -7 52 3 5 7 8 3 8 -11
0 -20 4 -22 22 -16 20 6 21 5 10 -9 -11 -13 -11 -15 0 -13 7 1 19 6 27 10 10
7 12 6 6 -4 -6 -10 -3 -12 14 -7 19 5 20 3 9 -10 -11 -14 -11 -15 7 -6 15 8
23 8 32 -2 6 -7 11 -15 10 -17 -1 -2 4 4 12 12 12 13 13 13 8 -2 -4 -11 0 -17
11 -17 38 -1 51 -5 46 -13 -3 -4 -14 -4 -24 2 -13 7 -21 7 -26 -2 -4 -6 -3 -8
4 -4 6 3 18 -1 26 -10 9 -8 16 -11 16 -6 0 12 19 10 39 -2 10 -6 12 -5 7 3
-10 15 25 11 36 -4 5 -6 8 -3 8 7 0 12 5 15 17 11 9 -4 14 -2 10 3 -3 6 3 11
14 11 18 2 19 0 7 -15 -11 -15 -11 -15 3 -5 9 7 19 10 23 6 4 -4 4 0 1 9 -4 9
-1 19 6 24 7 4 10 3 5 -4 -3 -6 -1 -14 6 -18 7 -4 10 -4 6 1 -13 14 11 44 32
40 11 -2 27 3 35 12 13 13 18 13 32 1 10 -7 14 -8 10 -1 -4 7 1 14 12 18 11 3
18 12 15 18 -6 17 36 20 56 4 12 -10 13 -10 4 3 -15 20 -14 47 3 47 8 0 10 -4
3 -12 -7 -8 -4 -11 8 -10 32 4 53 18 48 31 -3 8 -1 14 4 14 6 0 10 -4 10 -8 0
-5 7 -9 15 -9 11 0 12 4 3 14 -6 7 -8 16 -4 20 3 4 12 -2 20 -12 8 -12 15 -14
20 -7 3 6 2 13 -4 17 -5 3 -10 12 -10 18 0 8 3 8 9 -2 6 -9 11 -10 15 -2 4 6
12 11 19 11 8 0 8 -3 -1 -12 -7 -7 -12 -16 -12 -21 0 -5 16 10 37 32 33 37 37
39 49 23 12 -15 13 -15 9 5 -4 25 10 40 21 22 4 -8 3 -9 -4 -5 -8 5 -10 1 -5
-10 5 -15 7 -15 15 0 5 9 15 14 21 10 7 -3 4 1 -6 9 -12 10 -14 17 -8 22 6 3
11 1 11 -5 0 -6 8 -10 18 -8 9 1 24 -1 32 -6 12 -7 13 -6 3 5 -7 7 -13 20 -13
28 0 11 5 10 22 -5 12 -10 18 -14 15 -8 -4 7 6 17 23 24 17 7 30 18 30 24 0 7
5 17 12 24 9 9 15 7 25 -6 13 -16 14 -16 9 0 -3 12 0 16 14 13 12 -2 17 1 14
10 -3 7 0 16 7 21 7 4 10 3 6 -3 -4 -6 -1 -16 6 -22 11 -8 13 -7 12 7 0 9 -5
23 -9 30 -7 11 -4 11 13 1 15 -10 17 -16 8 -22 -9 -6 -8 -7 2 -5 8 2 15 14 16
26 1 12 5 25 10 29 4 5 5 0 2 -9 -4 -10 -2 -18 4 -18 6 0 7 -6 3 -12 -4 -8 -3
-10 2 -5 5 5 10 13 10 18 1 5 2 14 3 19 0 6 6 10 12 10 5 0 8 -4 4 -9 -3 -5
-1 -12 4 -15 17 -11 22 12 5 28 -17 17 -8 21 16 7 23 -15 33 -1 14 20 -16 18
-15 18 9 6 14 -6 23 -16 20 -21 -4 -5 -1 -6 6 -2 7 5 10 14 7 21 -3 8 3 19 12
27 10 8 13 8 9 1 -4 -6 -3 -14 3 -18 5 -3 10 -1 10 4 0 6 5 10 11 9 6 -2 14 3
17 11 3 8 0 11 -7 7 -6 -4 -11 -3 -11 3 0 5 18 9 40 8 38 -2 39 -2 22 17 -16
18 -16 18 5 7 13 -6 24 -7 27 -2 4 5 1 11 -6 13 -7 3 -2 7 10 10 12 4 20 2 16
-3 -3 -5 2 -9 11 -9 11 0 15 5 12 14 -8 20 15 37 33 26 20 -13 32 -2 24 23 -6
20 -5 20 14 -3 19 -23 20 -23 16 -4 -5 17 -1 20 18 19 28 -3 49 12 42 30 -3 7
0 16 7 21 8 4 10 3 5 -4 -16 -26 12 -10 33 19 22 30 23 30 43 12 21 -18 21
-18 8 7 -12 23 -12 24 3 11 15 -12 17 -11 18 5 0 11 3 14 6 6 2 -6 9 -10 13
-7 5 3 7 12 4 20 -4 10 2 13 21 11 20 -3 25 0 20 12 -4 12 -3 13 10 2 9 -7 18
-10 22 -6 4 3 -2 13 -13 21 -14 11 -14 13 -3 9 9 -3 24 2 33 11 9 9 16 12 16
6 0 -6 5 -11 11 -11 6 0 9 7 5 15 -3 8 -1 15 3 15 5 0 11 -4 13 -9 2 -4 11 0
22 10 18 18 18 18 -10 13 -16 -3 -26 -2 -22 1 3 4 13 7 21 9 8 1 22 8 30 14
10 9 17 9 22 3 7 -12 45 8 45 23 0 5 -8 2 -18 -7 -15 -14 -19 -15 -19 -2 0 8
4 12 8 9 4 -2 12 4 18 13 6 11 11 13 11 5 0 -7 4 -10 10 -7 5 3 8 0 7 -7 -2
-7 -2 -10 0 -5 3 4 9 5 14 1 14 -9 10 3 -7 21 -15 14 -13 15 17 10 27 -5 30
-3 21 8 -16 19 -3 30 16 14 13 -9 14 -9 8 0 -7 13 0 16 37 16 10 0 15 2 12 5
-2 3 1 12 7 21 9 11 6 10 -9 -2 -14 -12 -23 -15 -28 -7 -3 5 -11 7 -17 4 -7
-5 -8 -2 -3 5 5 9 10 10 18 2 8 -8 18 -4 36 12 13 12 21 17 18 11 -5 -8 2 -11
18 -10 l25 1 -23 18 c-18 14 -19 16 -3 10 13 -4 17 -3 12 5 -5 8 -2 10 8 6 9
-3 13 -11 9 -18 -4 -8 -2 -8 7 1 7 6 18 22 24 35 8 15 21 23 38 23 15 1 31 5
35 10 4 4 2 5 -4 1 -7 -4 -13 -2 -13 4 0 6 -6 8 -12 4 -7 -4 -9 -3 -5 2 4 4
20 9 35 10 41 2 44 3 36 15 -4 8 -9 7 -16 -2 -8 -11 -9 -11 -5 1 2 9 14 15 30
14 15 -1 24 3 21 8 -3 4 -9 6 -14 3 -5 -3 -11 -1 -15 4 -3 6 4 8 16 6 16 -3
19 0 15 13 -4 10 2 6 14 -8 15 -19 18 -20 13 -6 -4 13 -3 17 5 12 6 -3 13 -2
16 3 4 5 1 13 -5 17 -8 4 -9 3 -5 -4 5 -8 1 -10 -10 -5 -11 4 -13 8 -6 11 7 2
9 9 6 15 -5 8 -2 8 7 -1 18 -16 32 -15 26 3 -4 8 -1 17 5 21 7 4 8 3 4 -4 -4
-7 -2 -12 3 -12 6 0 11 5 11 10 0 6 12 10 26 10 l26 0 -23 21 c-13 11 -17 17
-9 13 26 -14 42 -13 36 1 -3 8 0 17 6 21 7 4 8 3 4 -4 -4 -7 -1 -12 9 -12 9 0
14 4 11 9 -8 12 23 23 37 14 7 -4 6 1 -2 10 -16 20 -1 23 18 4 7 -6 12 -7 11
-2 -5 24 1 46 10 40 6 -4 7 -11 4 -17 -4 -6 -2 -8 4 -5 5 4 8 17 6 30 -2 12
-2 16 2 10 3 -7 10 -13 15 -13 6 0 7 5 4 10 -6 9 10 14 45 11 10 0 11 1 3 5
-20 9 -15 23 6 19 15 -3 18 1 14 12 -5 12 -3 14 8 8 12 -8 12 -6 0 8 -8 10
-11 20 -7 24 3 3 6 0 6 -7 0 -11 3 -11 12 -2 7 7 17 12 23 12 5 0 3 -5 -5 -11
-13 -9 -13 -10 0 -6 8 2 14 12 14 21 -2 14 13 21 37 18 4 -1 5 8 2 18 -3 12 0
20 6 20 7 0 10 -4 6 -9 -3 -5 -2 -12 3 -15 4 -2 9 5 9 17 1 12 7 23 13 25 5 2
7 9 4 14 -4 7 -2 8 5 4 6 -4 9 -11 6 -16 -3 -5 0 -12 6 -16 7 -4 9 -3 5 4 -3
6 -2 13 4 17 5 3 10 1 10 -6 0 -7 3 -9 7 -5 5 4 -1 14 -12 22 -19 14 -19 14 5
12 20 -2 24 1 22 16 -3 16 -1 18 11 8 11 -10 17 -9 27 2 6 9 9 20 5 26 -4 7 0
10 11 8 13 -2 19 3 18 14 -2 21 12 24 20 6 4 -7 4 -3 2 9 -2 12 2 27 10 34 8
6 14 8 14 4 0 -4 14 10 32 31 17 22 28 31 25 22 -3 -10 -1 -20 5 -24 7 -4 8
-3 4 4 -4 7 -3 12 3 12 6 0 8 8 5 18 -5 14 -3 14 10 -2 19 -23 21 -14 4 17
-10 20 -10 21 5 8 12 -9 17 -10 17 -2 0 7 6 9 13 6 6 -4 3 1 -7 9 -22 18 -14
21 14 6 15 -8 17 -6 13 10 -3 12 0 20 6 20 7 0 9 -4 6 -10 -4 -6 1 -7 11 -3
11 4 13 8 6 11 -7 2 -12 11 -11 20 0 11 2 12 6 5 9 -23 25 -14 18 10 -7 22 -7
22 9 2 15 -20 15 -20 11 2 -3 17 0 20 12 16 11 -4 14 -2 9 5 -4 7 -1 12 10 12
14 0 14 3 4 15 -7 9 -10 18 -6 22 3 3 6 2 6 -4 0 -6 6 -13 14 -16 9 -4 12 2
10 19 -1 13 2 22 7 18 5 -3 12 2 15 10 3 9 11 13 16 10 6 -4 1 -14 -12 -24
-18 -14 -20 -19 -9 -25 8 -5 11 -5 7 0 -5 5 1 15 12 22 11 8 18 19 15 24 -4 5
-1 9 4 9 6 0 11 5 11 11 0 5 -5 7 -12 3 -7 -4 -8 -3 -4 5 6 8 12 9 20 2 17
-14 29 -1 14 16 -9 11 -7 12 8 6 17 -6 18 -5 4 12 -14 17 -14 18 8 6 13 -7 26
-10 30 -7 3 3 0 6 -6 6 -15 0 -16 26 -2 35 6 3 8 -2 5 -12 -3 -10 1 -5 8 11
10 20 16 25 20 15 3 -9 6 -5 6 9 1 12 6 22 12 22 5 0 8 -4 4 -9 -3 -5 0 -13 6
-17 7 -4 9 -3 6 3 -4 6 4 20 18 33 13 12 21 28 18 36 -3 9 2 14 13 14 16 0 17
2 4 11 -12 9 -11 10 6 6 11 -2 21 1 22 7 4 44 18 67 37 59 11 -4 13 -1 8 13
-4 12 -3 15 5 10 8 -5 12 1 13 16 0 13 3 17 6 10 2 -6 9 -9 14 -6 6 3 5 12 -3
22 -12 14 -10 14 12 2 23 -12 24 -12 11 3 -9 12 -10 17 -2 17 7 0 9 5 5 12 -4
7 -3 8 5 4 6 -4 8 -13 4 -19 -4 -7 1 -6 11 2 13 11 14 16 4 22 -9 6 -8 9 7 10
11 1 24 1 28 0 5 -1 5 3 2 9 -4 6 -14 9 -24 5 -10 -4 -8 1 7 15 12 12 19 26
16 32 -4 6 -3 8 4 4 6 -3 9 -15 7 -26 -2 -12 0 -18 6 -15 5 4 7 10 4 15 -3 5
5 16 17 24 15 11 18 16 8 16 -12 1 -12 3 2 14 12 9 14 16 7 23 -8 8 -6 11 7
10 10 -1 19 5 19 13 1 8 7 14 14 12 8 -2 11 3 8 12 -9 24 17 50 44 43 21 -5
22 -4 8 6 -15 12 -15 15 8 35 15 13 21 27 17 34 -6 10 -4 10 8 0 13 -10 18
-10 24 -1 4 7 3 9 -3 6 -6 -4 -13 -1 -16 7 -4 9 0 12 13 9 10 -3 21 0 25 7 4
7 1 10 -7 8 -7 -2 -15 2 -16 7 -1 6 7 10 17 10 11 0 23 4 28 9 4 5 3 6 -3 3
-7 -4 -14 -1 -17 7 -4 9 0 13 11 11 24 -4 37 6 21 16 -12 7 -12 10 0 21 10 10
12 10 7 1 -8 -15 10 -18 19 -4 3 6 -3 15 -12 21 -17 11 -17 11 0 6 10 -3 27 0
38 8 18 12 18 14 3 20 -14 5 -15 9 -5 19 9 9 14 9 21 -3 6 -9 10 -10 10 -3 0
6 -5 15 -10 18 -14 9 -3 25 26 36 22 8 23 12 13 30 -9 17 -8 20 2 14 9 -6 10
-3 5 10 -6 18 -6 18 15 -1 12 -10 20 -14 16 -8 -11 19 -16 65 -6 59 5 -4 7
-10 4 -15 -3 -5 -1 -11 3 -14 5 -3 9 5 9 17 1 40 3 47 14 47 8 0 8 -4 0 -14
-9 -10 -7 -17 6 -27 16 -13 17 -12 4 3 -11 15 -11 19 3 24 15 6 15 8 -1 21
-17 14 -17 14 2 8 16 -5 17 -4 8 6 -9 9 -8 17 7 37 11 13 17 29 13 35 -3 6 -1
7 5 3 13 -8 -1 -44 -22 -58 -8 -6 -8 -8 1 -8 17 0 54 68 40 74 -7 2 -1 5 13 5
15 1 20 4 13 9 -14 9 -12 34 6 56 7 8 9 21 5 27 -4 7 -3 9 4 5 6 -3 13 -2 17
4 4 6 11 8 16 4 5 -3 8 0 7 8 -2 7 3 12 10 10 10 -2 10 2 1 19 -10 19 -9 21 5
16 9 -4 15 -3 15 1 -1 4 0 9 1 12 9 25 6 38 -8 33 -10 -3 1 6 23 21 24 15 33
26 23 26 -9 0 -18 -5 -20 -12 -3 -8 -7 -6 -11 5 -3 9 -3 16 1 15 18 -3 40 15
35 29 -5 12 -3 14 7 8 10 -6 11 -4 4 6 -12 20 -14 40 -3 33 5 -3 7 -10 4 -15
-3 -5 1 -6 10 -2 9 3 13 9 8 12 -15 11 -14 31 2 37 13 5 13 9 3 22 -8 10 -8
13 -2 9 13 -8 27 19 19 34 -4 5 1 6 9 3 9 -3 16 -2 16 4 0 6 -6 13 -12 15 -8
4 -7 6 3 6 9 1 20 8 23 17 6 15 4 15 -10 3 -16 -13 -16 -12 -7 6 6 11 11 23
12 28 1 10 11 10 19 1 4 -4 1 -4 -7 1 -10 6 -12 4 -7 -4 10 -15 19 -7 23 20 2
13 -1 18 -9 13 -6 -4 -4 3 5 16 11 16 13 27 7 35 -8 9 -4 12 14 10 18 -2 23 1
19 11 -3 8 0 21 6 28 9 11 9 16 0 22 -7 4 -9 3 -5 -4 3 -6 2 -13 -3 -16 -14
-9 -7 22 9 37 10 9 11 9 6 0 -4 -7 -5 -13 -2 -13 11 0 32 58 31 87 0 17 2 30
6 27 4 -2 10 0 14 6 3 5 2 10 -3 10 -6 0 -13 8 -17 18 -5 14 -4 15 6 5 7 -7
20 -13 29 -13 9 0 11 3 4 8 -14 9 -27 45 -14 37 13 -8 13 1 0 25 -9 16 -8 19
7 13 15 -5 16 -3 6 8 -16 16 -17 29 -2 29 5 0 7 -4 4 -10 -3 -5 -1 -10 5 -10
7 0 9 8 5 22 -6 17 -4 20 9 15 14 -6 15 -3 6 13 -6 11 -8 20 -5 20 3 0 0 10
-6 23 -11 20 -11 21 5 8 9 -8 19 -11 23 -7 3 3 1 6 -5 6 -7 0 -12 7 -12 16 0
12 3 14 13 6 9 -8 12 -3 13 19 1 15 -2 26 -7 24 -4 -3 -11 -1 -14 5 -4 6 -1 9
7 8 7 -2 12 3 10 10 -1 8 2 11 9 7 7 -5 9 1 7 16 -2 15 2 23 10 21 10 -2 10 2
0 17 -7 11 -16 17 -20 15 -4 -3 -8 0 -8 5 0 6 9 11 21 11 19 0 19 1 5 16 -17
16 -13 34 7 34 8 0 8 -3 -2 -9 -8 -5 -9 -11 -3 -15 5 -3 13 1 16 9 3 9 -1 18
-9 21 -8 4 -12 10 -9 16 3 5 13 4 22 -4 11 -8 10 -4 -3 11 -11 14 -14 21 -7
17 13 -8 13 19 -1 41 -6 9 -3 11 10 6 16 -6 17 -5 3 12 -9 11 -10 16 -2 11 6
-4 12 -2 12 3 0 6 -6 11 -12 11 -9 0 -9 3 1 9 10 6 12 19 8 40 -5 24 -3 33 9
38 10 4 12 8 5 13 -6 3 -13 16 -16 29 -2 12 0 19 6 16 5 -4 6 -12 2 -18 -4 -7
0 -6 10 2 17 14 24 26 9 17 -5 -3 -8 10 -8 28 1 19 3 33 6 31 7 -5 4 50 -4 63
-3 6 -1 14 5 18 8 5 9 3 4 -7 -5 -8 -4 -11 0 -6 5 4 10 17 12 29 3 17 1 19
-11 8 -13 -10 -14 -7 -6 19 5 17 6 31 2 31 -3 0 -1 5 6 12 7 7 12 17 12 23 0
5 -5 3 -10 -5 -6 -10 -9 16 -8 75 1 60 -2 90 -10 93 -7 2 -12 8 -12 13 0 6 4
8 8 5 5 -3 9 2 9 10 0 8 -6 13 -13 10 -8 -3 -16 0 -20 6 -4 7 -3 8 4 4 7 -4
12 -1 12 9 0 10 5 13 12 9 7 -4 8 -3 4 4 -4 6 -14 8 -24 5 -16 -7 -16 -5 1 20
16 25 16 26 0 20 -16 -6 -16 -5 -4 10 11 14 11 17 0 17 -11 0 -11 2 1 10 13 8
13 10 -2 10 -9 0 -20 4 -23 10 -3 5 0 7 8 4 8 -3 18 0 23 7 4 7 3 10 -3 6 -19
-12 -36 19 -23 40 10 16 10 15 5 -4 -4 -13 -3 -23 2 -23 12 0 14 38 2 45 -5 4
-6 11 -3 17 4 7 2 8 -5 4 -6 -4 -9 -12 -6 -17 4 -5 1 -9 -5 -9 -7 0 -10 6 -7
14 3 7 0 19 -6 25 -9 9 -8 11 3 6 11 -4 16 1 16 14 0 13 -4 17 -11 11 -7 -6
-12 1 -13 21 -1 17 1 28 6 25 5 -3 9 1 9 8 0 7 -6 13 -13 13 -7 0 -11 -4 -8
-8 2 -4 -1 -11 -7 -15 -7 -4 -9 -3 -5 4 3 6 2 13 -2 16 -5 3 -7 17 -5 31 3 14
10 22 16 18 6 -3 7 -1 3 6 -4 6 -12 9 -17 5 -6 -3 -8 5 -5 20 3 18 -1 27 -15
31 -10 4 -19 11 -19 16 0 6 4 8 8 5 4 -2 9 5 9 17 2 17 0 19 -7 7 -8 -13 -11
-13 -22 -1 -10 10 -10 12 0 7 7 -5 12 -1 12 9 0 9 -5 13 -10 10 -5 -3 -10 1
-10 10 0 9 4 14 8 11 5 -3 9 2 9 10 0 10 -4 11 -11 4 -22 -22 -31 -2 -13 27 6
9 3 11 -7 7 -8 -3 -23 -1 -33 5 -10 6 -13 11 -7 11 7 0 14 7 17 14 4 10 1 13
-8 10 -9 -4 -12 0 -8 14 2 11 0 23 -6 26 -7 5 -8 1 -4 -11 3 -10 3 -15 -1 -11
-4 4 -10 22 -12 40 -2 18 -5 38 -6 45 -1 7 -5 10 -10 7 -4 -3 -4 -14 2 -24 12
-23 13 -30 2 -30 -8 0 -10 5 -14 48 -1 9 -8 23 -17 30 -9 8 -11 11 -6 8 6 -2
11 4 11 14 0 14 -3 16 -13 8 -16 -13 -17 -4 -2 25 9 20 9 20 -4 5 -18 -23 -31
-23 -23 -2 9 23 -14 50 -26 32 -6 -8 -7 -5 -3 11 5 15 3 21 -3 17 -5 -3 -12 1
-15 9 -4 10 -1 12 11 9 15 -5 15 -4 -1 6 -9 6 -21 9 -26 5 -6 -3 -8 8 -6 26 4
26 2 29 -11 19 -8 -7 -17 -10 -21 -6 -3 3 -2 6 4 6 5 0 10 7 10 15 0 11 -4 12
-13 4 -9 -8 -11 -5 -7 10 3 12 0 22 -6 22 -6 1 -15 2 -21 3 -11 1 -12 18 -3
26 4 3 3 -1 -1 -7 -5 -9 -2 -11 10 -6 15 5 15 7 0 15 -9 5 -14 13 -11 19 4 5
1 9 -5 9 -7 0 -10 -7 -6 -15 3 -8 1 -15 -4 -15 -6 0 -10 7 -10 16 0 14 -2 15
-17 3 -14 -12 -16 -12 -8 1 11 18 14 51 4 44 -4 -2 -10 0 -14 6 -4 6 -11 8
-16 5 -5 -4 -5 4 1 19 8 21 7 24 -7 19 -12 -5 -14 -3 -8 8 8 12 6 12 -9 0 -9
-8 -16 -10 -15 -5 4 21 -2 28 -12 14 -8 -12 -9 -10 -4 8 4 14 1 28 -9 37 -22
23 -32 18 -11 -5 17 -18 17 -20 2 -14 -9 3 -17 10 -17 16 0 5 -6 6 -12 3 -7
-4 -2 3 11 15 l24 21 -25 -5 c-18 -3 -32 2 -45 17 -10 11 -12 17 -5 13 6 -4
12 -2 12 3 0 6 -10 11 -22 11 -17 0 -19 3 -10 9 10 6 5 10 -17 14 -17 4 -31
12 -31 18 0 8 4 8 14 0 10 -8 16 -9 21 -1 4 6 1 9 -7 8 -7 -2 -12 2 -11 8 1 7
-10 10 -30 8 -18 -2 -27 0 -20 4 9 6 7 12 -7 22 -12 9 -16 18 -10 25 6 7 -2
10 -26 9 -19 -1 -32 2 -29 6 3 5 15 6 28 4 20 -4 20 -4 2 4 -11 5 -26 7 -33 4
-9 -3 -12 2 -10 13 2 10 -4 20 -12 22 -13 4 -13 3 0 -6 13 -9 12 -11 -3 -11
-12 0 -16 -4 -11 -12 4 -7 3 -9 -2 -5 -4 4 -9 18 -9 29 0 12 -7 23 -15 25 -13
4 -13 3 0 -7 12 -9 12 -11 1 -8 -8 2 -21 15 -29 29 -13 23 -13 23 2 5 13 -16
16 -17 16 -4 0 9 -6 18 -12 20 -18 7 -39 -2 -33 -12 3 -5 1 -11 -4 -14 -13 -8
-8 19 6 36 9 11 8 14 -7 14 -10 0 -16 -5 -14 -11 3 -5 -1 -2 -9 7 -8 10 -18
14 -22 10 -4 -4 -6 3 -3 15 5 18 2 21 -18 17 -16 -3 -27 1 -30 11 -4 8 -16 15
-28 15 -12 0 -27 9 -34 21 -13 20 -14 20 -35 2 -19 -16 -20 -16 -8 0 12 15 11
17 -3 17 -9 0 -16 5 -16 10 0 6 -5 10 -11 10 -5 0 -7 -4 -4 -10 3 -5 1 -10 -4
-10 -15 0 -14 13 2 29 10 11 8 11 -10 2 -16 -8 -24 -8 -29 0 -4 8 -9 7 -15 -2
-5 -9 -7 -2 -4 19 2 18 0 30 -6 27 -5 -4 -9 -14 -9 -23 0 -14 -2 -15 -9 -2 -6
8 -8 17 -5 21 2 4 -7 6 -21 4 -14 -1 -28 1 -30 5 -2 4 -16 6 -30 5 -14 -2 -23
1 -20 5 3 5 13 6 22 3 15 -6 16 -5 3 9 -10 11 -19 13 -27 7 -7 -7 -14 -6 -18
1 -3 6 -11 7 -17 4 -7 -4 -8 -2 -4 5 6 8 12 9 20 2 9 -8 13 -7 13 3 0 8 -7 13
-16 11 -9 -1 -22 3 -30 9 -11 9 -13 6 -7 -14 5 -17 4 -21 -2 -11 -6 8 -15 10
-23 6 -8 -5 -11 -5 -7 0 4 4 -2 16 -14 26 -25 22 -34 24 -22 6 5 -7 1 -4 -8 6
-10 11 -15 24 -11 31 4 7 1 7 -9 -1 -8 -7 -19 -9 -23 -5 -5 4 -5 1 -1 -6 4 -7
12 -10 17 -7 5 4 9 1 9 -4 0 -6 -4 -11 -8 -11 -12 0 -43 36 -37 42 3 3 -11 3
-31 1 -33 -3 -36 -2 -24 12 11 14 10 15 -13 6 -18 -7 -28 -7 -33 1 -5 7 -3 8
6 3 9 -5 11 -4 6 4 -6 9 -11 9 -22 0 -10 -8 -14 -8 -14 0 0 6 -7 11 -16 11 -9
0 -12 5 -8 13 6 10 4 10 -7 0 -15 -15 -49 -17 -49 -3 0 5 -8 6 -17 3 -16 -6
-17 -5 -3 12 14 17 14 18 -7 7 -18 -10 -24 -9 -32 5 -6 11 -11 13 -11 5 0 -7
-5 -10 -12 -6 -7 4 -8 3 -4 -5 4 -6 12 -8 18 -5 7 4 8 2 4 -4 -9 -15 -9 -15
-34 7 -12 10 -18 22 -14 26 4 4 -2 3 -14 -3 -15 -8 -24 -8 -32 0 -8 8 -9 5 -5
-11 3 -12 1 -21 -6 -21 -6 0 -10 6 -8 13 1 7 -6 11 -17 9 -11 -2 -15 1 -11 7
3 6 -1 11 -10 11 -10 0 -13 -5 -9 -12 4 -7 3 -8 -4 -4 -7 4 -12 14 -12 22 0 8
-4 13 -10 9 -5 -3 -6 -13 -3 -23 6 -16 6 -16 -11 1 -9 9 -22 17 -28 17 -6 0
-5 -7 3 -17 12 -16 12 -17 -2 -6 -9 7 -19 10 -23 6 -4 -4 -4 1 0 12 7 18 6 18
-9 6 -14 -11 -17 -11 -18 0 0 8 -4 5 -9 -6 -7 -16 -9 -17 -9 -3 -1 9 -6 20
-13 24 -7 5 -8 3 -3 -5 5 -9 2 -12 -11 -9 -11 2 -18 11 -16 18 2 10 -3 9 -17
-4 -19 -17 -26 -15 -22 7 2 14 -17 7 -23 -9 -4 -10 -2 -13 7 -8 7 4 8 3 4 -2
-14 -15 -41 -10 -60 11 -10 11 -16 15 -14 10 3 -6 -6 -16 -20 -22 -22 -11 -26
-10 -30 6 -3 11 -12 18 -21 16 -10 -1 -26 2 -37 7 -19 9 -19 9 -1 -6 10 -9 22
-13 27 -11 4 3 10 1 13 -4 8 -12 -66 -2 -83 13 -12 8 -13 8 -7 -1 4 -7 2 -13
-3 -13 -6 0 -11 8 -12 18 0 13 -2 12 -9 -5 -6 -15 -15 -21 -25 -17 -8 4 -22 1
-29 -5 -10 -9 -16 -9 -21 -1 -5 8 -11 7 -23 -2 -12 -10 -14 -10 -8 0 4 7 2 12
-4 12 -6 0 -8 5 -4 12 5 7 3 8 -5 4 -7 -5 -10 -14 -8 -20 3 -7 -1 -13 -9 -13
-8 0 -13 6 -10 13 3 9 -1 11 -12 7 -15 -6 -16 -5 -2 12 11 14 6 13 -20 -6 -19
-13 -38 -28 -41 -32 -3 -5 -9 -2 -12 6 -3 8 -18 15 -32 15 -18 0 -23 -3 -14
-9 7 -4 17 -5 21 -3 4 3 5 -3 1 -12 -4 -11 -8 -13 -11 -6 -2 7 -13 12 -23 12
-13 0 -18 4 -13 13 6 10 4 10 -7 0 -16 -16 -33 -17 -23 -1 5 7 3 8 -5 4 -7 -5
-10 -14 -7 -22 3 -8 0 -11 -9 -8 -8 3 -11 13 -9 22 3 9 -2 6 -10 -8 -8 -14
-15 -19 -16 -12 0 6 -5 12 -11 12 -5 0 -8 -4 -5 -9 3 -5 -3 -11 -14 -14 -11
-3 -18 -1 -15 3 7 11 -22 7 -32 -5 -4 -4 -2 -5 5 -1 6 4 12 2 12 -4 0 -10 -40
-7 -59 4 -5 4 -12 2 -16 -4 -3 -5 -11 -10 -16 -10 -6 0 -7 6 -3 13 6 9 4 9 -8
-1 -8 -7 -24 -10 -34 -6 -14 4 -16 3 -5 -4 10 -8 11 -14 1 -28 -7 -13 -10 -14
-7 -3 3 9 -1 16 -9 16 -7 0 -11 -4 -8 -9 3 -4 -3 -9 -13 -9 -39 -3 -44 -4 -54
-19 -9 -13 -10 -12 -5 3 3 9 1 17 -4 17 -6 0 -10 -4 -10 -10 0 -5 -5 -10 -11
-10 -5 0 -7 5 -3 12 4 7 3 8 -4 4 -7 -4 -12 -13 -12 -21 0 -8 -5 -17 -12 -21
-8 -5 -9 -2 -5 9 3 9 2 19 -2 22 -5 2 -11 -4 -14 -15 -3 -11 -11 -20 -19 -20
-11 0 -11 2 0 9 11 7 10 9 -3 14 -9 4 -13 3 -10 -3 3 -6 1 -10 -5 -10 -6 0 -9
-4 -6 -9 3 -5 -1 -12 -10 -15 -24 -9 -36 -7 -28 6 5 7 3 8 -5 4 -7 -5 -10 -14
-7 -22 3 -8 2 -13 -2 -13 -18 3 -33 -2 -28 -9 6 -10 -24 -9 -41 1 -6 4 -15 2
-19 -4 -5 -8 -3 -9 6 -4 9 5 11 4 6 -4 -6 -9 -11 -9 -23 1 -14 11 -15 10 -9
-12 5 -17 4 -21 -2 -11 -8 11 -12 10 -22 -5 -11 -18 -11 -18 -6 0 5 15 4 17
-7 8 -8 -7 -18 -8 -22 -4 -5 4 -5 1 0 -7 6 -11 3 -13 -13 -9 -12 4 -20 2 -16
-3 3 -5 0 -9 -6 -9 -6 0 -9 -4 -6 -9 4 -5 -3 -7 -14 -4 -14 4 -22 -1 -29 -18
-5 -13 -10 -19 -10 -13 -1 6 -8 11 -16 11 -13 0 -13 -2 0 -17 13 -14 13 -17 0
-17 -8 0 -12 4 -9 9 3 4 1 8 -4 8 -11 0 -26 -30 -23 -45 1 -5 -5 -1 -14 9 -8
11 -18 17 -21 13 -4 -4 -1 -13 5 -21 10 -11 9 -14 -1 -12 -7 1 -18 5 -25 9 -6
4 -14 3 -17 -2 -4 -5 0 -12 6 -15 7 -3 -2 -4 -20 -2 -18 3 -30 0 -26 -5 3 -5
9 -7 14 -4 5 3 11 1 14 -4 4 -5 2 -12 -3 -15 -5 -4 -12 -2 -16 4 -3 5 -13 10
-22 10 -11 0 -13 -3 -5 -13 8 -9 8 -17 0 -27 -8 -13 -9 -12 -5 2 4 12 0 16
-13 15 -15 -1 -17 -5 -8 -20 7 -13 7 -17 0 -13 -6 4 -15 -2 -21 -11 -6 -10
-11 -13 -11 -8 0 6 6 17 13 24 6 8 0 6 -15 -4 -16 -9 -28 -22 -28 -29 0 -6 5
-4 10 4 8 13 10 12 10 -2 0 -21 -11 -23 -29 -5 -11 10 -13 10 -7 0 5 -8 1 -13
-11 -13 -17 -1 -17 -2 1 -15 11 -8 15 -15 9 -15 -7 0 -19 7 -27 16 -19 18 -20
11 -5 -19 12 -22 11 -22 -9 -4 -12 11 -22 14 -26 8 -4 -5 0 -13 8 -18 12 -7
12 -10 -2 -23 -14 -13 -15 -12 -9 3 3 9 2 17 -3 17 -6 0 -10 -5 -10 -11 0 -5
-3 -8 -7 -6 -5 3 -14 -2 -22 -10 -12 -13 -11 -14 8 -8 13 4 21 2 21 -5 0 -6
-5 -8 -10 -5 -6 3 -13 -1 -16 -10 -6 -14 -8 -14 -20 2 -13 16 -13 16 -8 1 3
-9 -1 -27 -10 -40 -19 -26 -21 -17 -4 15 10 20 9 20 -15 -3 -25 -23 -25 -26
-9 -39 15 -12 15 -12 -5 -6 -19 5 -22 3 -16 -12 6 -16 5 -16 -10 -4 -15 12
-17 12 -11 -3 5 -12 2 -15 -10 -10 -12 5 -15 2 -10 -10 3 -9 11 -13 17 -9 6 4
-4 -9 -23 -29 -29 -29 -37 -33 -46 -22 -6 8 -14 11 -17 8 -3 -4 0 -13 8 -21
18 -17 19 -33 4 -33 -5 0 -7 5 -4 10 3 6 1 10 -5 10 -6 0 -13 -14 -17 -31 -4
-22 -8 -27 -14 -17 -7 10 -9 9 -9 -5 0 -12 -4 -16 -12 -11 -9 5 -8 2 1 -9 12
-15 12 -17 -2 -12 -8 4 -18 2 -22 -4 -3 -6 0 -11 7 -11 10 0 10 -2 0 -9 -8 -4
-14 -12 -14 -17 1 -5 -5 -8 -13 -6 -7 1 -17 -3 -21 -9 -4 -7 -3 -9 3 -6 6 4
13 1 16 -7 6 -14 -9 -16 -29 -3 -7 4 -11 0 -10 -11 0 -9 -5 -16 -12 -14 -8 1
-11 -2 -8 -7 4 -5 -4 -19 -16 -31 -14 -13 -17 -19 -7 -15 11 4 18 -1 22 -15 4
-18 3 -19 -9 -9 -12 10 -13 9 -8 -5 5 -12 2 -15 -11 -10 -14 6 -16 3 -11 -14
4 -11 2 -23 -4 -27 -6 -3 -8 -10 -5 -15 3 -5 -4 -11 -14 -15 -13 -4 -18 -12
-15 -23 5 -15 4 -15 -5 -2 -9 12 -13 13 -20 2 -7 -11 -9 -10 -14 3 -4 9 -3 13
3 10 6 -3 10 -1 10 4 0 12 -13 14 -24 4 -10 -11 -37 -12 -30 -2 3 5 10 6 16 3
7 -5 8 -2 4 5 -5 7 -15 10 -23 7 -8 -3 -11 -2 -8 3 3 5 1 12 -5 16 -7 4 -7 13
1 26 9 17 7 21 -10 26 -12 3 -21 10 -21 15 0 5 5 6 12 2 7 -4 8 -3 4 4 -4 6
-14 8 -23 5 -10 -4 -14 -2 -10 5 4 6 2 12 -5 15 -7 2 -3 2 10 0 12 -2 22 1 22
7 0 5 -3 9 -7 9 -19 -3 -46 2 -40 7 3 3 -6 17 -21 31 -15 14 -18 19 -8 12 18
-13 19 -12 13 4 -4 10 -7 21 -7 23 0 3 -4 2 -10 -1 -10 -6 -14 8 -10 34 1 13
-1 13 -14 2 -9 -8 -19 -11 -23 -7 -3 3 -1 6 5 6 7 0 12 5 12 11 0 5 -4 7 -10
4 -5 -3 -10 -1 -10 5 0 6 -5 8 -10 5 -6 -4 -10 -3 -9 2 4 22 -2 44 -10 38 -5
-3 -12 -1 -16 5 -4 6 -12 7 -18 3 -7 -3 -5 2 5 13 14 16 14 21 2 32 -7 6 -20
12 -29 12 -8 0 -15 8 -15 18 0 14 2 15 10 2 7 -12 9 -10 7 7 -1 17 -4 20 -15
11 -9 -8 -16 -8 -25 2 -9 9 -9 11 0 6 6 -3 15 -2 18 4 4 6 1 9 -7 8 -7 -2 -12
2 -11 8 1 6 -5 11 -13 12 -7 1 -21 3 -29 4 -10 1 -13 11 -11 30 3 21 0 26 -7
19 -21 -21 -30 -11 -11 12 10 12 12 16 4 10 -21 -19 -33 -16 -27 8 4 16 3 18
-9 8 -13 -11 -19 -2 -15 24 0 4 -2 6 -6 6 -5 -1 -15 -1 -23 0 -13 1 -13 2 0
12 12 8 10 9 -7 4 -12 -3 -24 -1 -28 5 -3 6 -10 8 -14 6 -4 -3 -8 1 -8 9 0 13
4 12 19 -2 10 -9 18 -12 18 -7 0 15 -38 35 -45 24 -3 -6 -12 -10 -18 -9 -9 0
-9 2 1 6 15 6 16 30 0 39 -8 5 -9 2 -5 -9 3 -10 2 -17 -3 -17 -6 0 -10 6 -10
13 0 8 -4 7 -10 -3 -5 -8 -10 -10 -10 -4 0 5 6 16 13 23 10 11 9 13 -5 8 -10
-4 -18 -2 -18 4 0 6 -4 7 -10 4 -5 -3 -10 1 -10 10 0 9 5 13 10 10 6 -3 10 -1
10 4 0 17 -18 13 -30 -6 -9 -16 -10 -15 -8 6 2 16 -2 25 -15 27 -9 1 -15 -2
-11 -7 3 -5 10 -6 16 -3 7 4 8 2 4 -5 -6 -9 -11 -9 -22 0 -8 6 -14 8 -14 4 0
-4 -12 4 -26 18 -15 15 -31 24 -38 20 -6 -3 -8 -3 -4 2 4 4 0 14 -10 22 -10 9
-11 12 -2 7 8 -4 23 -14 33 -22 9 -8 17 -11 17 -6 1 5 7 -2 14 -16 l14 -25 -1
27 c-2 19 -7 25 -20 22 -10 -1 -21 3 -24 11 -3 8 -9 15 -14 15 -4 0 -24 11
-44 24 -21 14 -43 22 -52 19 -11 -4 -14 -2 -9 5 4 7 2 12 -4 12 -6 0 -8 5 -4
12 4 7 3 8 -5 4 -6 -4 -9 -11 -7 -15 3 -3 -3 -7 -13 -7 -10 0 -18 6 -18 13 0
7 4 10 9 7 4 -3 5 2 1 11 -3 9 -9 13 -12 8 -3 -4 -15 -9 -26 -10 -11 -1 -14 0
-7 3 6 3 12 10 12 15 0 6 -7 6 -18 0 -10 -6 -24 -6 -32 -1 -8 5 -17 7 -20 5
-4 -2 -7 2 -7 10 0 11 4 11 23 -1 17 -12 24 -12 30 -3 4 8 3 9 -4 5 -6 -4 -20
2 -30 12 -17 17 -20 18 -31 3 -6 -9 -9 -10 -6 -3 3 6 2 12 -4 12 -5 0 -12 -6
-14 -12 -4 -8 -6 -7 -6 4 -1 9 2 18 7 21 4 2 2 2 -5 1 -6 -2 -14 2 -17 9 -3 7
-3 0 -1 -16 2 -16 0 -25 -6 -22 -5 4 -7 10 -4 15 3 5 1 11 -5 15 -6 4 -7 12
-4 18 4 7 3 8 -2 4 -5 -5 -10 -13 -10 -18 -1 -5 -2 -12 -3 -15 0 -4 -12 1 -25
9 -13 9 -27 13 -32 9 -5 -4 -6 -3 -2 2 11 14 10 28 -2 21 -5 -3 -10 -1 -10 5
0 6 -4 9 -9 5 -6 -3 -16 1 -23 8 -10 12 -15 11 -28 -5 -15 -19 -16 -19 -17 3
-2 19 0 21 8 9 9 -12 10 -12 5 3 -3 10 -6 21 -6 24 0 2 -8 -3 -17 -12 -14 -14
-18 -15 -27 -4 -6 8 -20 21 -31 29 l-20 15 20 -25 20 -24 -38 22 c-21 12 -36
18 -32 13 3 -5 0 -13 -6 -17 -7 -4 -9 -3 -6 3 10 16 -18 24 -32 10 -10 -9 -12
-9 -9 3 2 8 -3 14 -9 13 -7 -2 -13 1 -13 5 0 4 6 14 13 22 6 8 3 7 -9 -3 -22
-18 -39 -23 -29 -8 3 5 0 13 -6 17 -8 4 -9 3 -5 -4 4 -7 2 -12 -4 -12 -6 0 -8
-6 -4 -12 4 -7 -3 -4 -15 6 -26 23 -61 31 -61 14 0 -6 -6 -3 -14 7 -18 24 -66
29 -59 6 4 -12 1 -12 -10 2 -15 18 -16 18 -20 -5 -4 -23 -4 -23 -6 0 0 12 -6
22 -12 22 -5 0 -8 -4 -4 -9 8 -14 -34 -5 -53 11 -10 8 -13 9 -9 1 5 -8 -3 -11
-28 -10 -38 2 -41 6 -22 27 10 12 9 12 -4 2 -9 -6 -19 -9 -23 -5 -4 4 -4 0 0
-10 5 -13 2 -16 -10 -11 -9 3 -16 14 -17 23 0 13 -2 13 -6 1 -10 -27 -27 -30
-59 -10 -31 18 -33 18 -52 0 -17 -16 -21 -17 -26 -4 -3 8 -2 13 3 10 5 -3 15
2 22 12 12 15 12 16 -1 6 -18 -12 -30 -12 -49 0 -10 6 -12 5 -7 -2 8 -14 -51
-11 -74 3 -13 7 -13 6 -2 -7z m172 -23 c11 -13 10 -14 -4 -9 -9 3 -16 10 -16
15 0 13 6 11 20 -6z m3740 -15 c0 -5 -5 -10 -11 -10 -5 0 -7 5 -4 10 3 6 8 10
11 10 2 0 4 -4 4 -10z m365 0 c-3 -5 -12 -10 -18 -10 -7 0 -6 4 3 10 19 12 23
12 15 0z m115 -5 c11 -13 10 -14 -4 -9 -9 3 -16 10 -16 15 0 13 6 11 20 -6z
m-4725 -4 c-9 -8 -36 -10 -30 -2 2 4 11 8 20 8 8 0 13 -3 10 -6z m851 -10 c1
-6 0 -7 -3 -1 -2 5 -9 8 -13 5 -5 -3 -11 -1 -14 4 -4 5 2 8 11 7 9 -2 18 -8
19 -15z m-900 -3 c4 -7 3 -8 -4 -4 -7 4 -12 2 -12 -5 0 -7 -3 -10 -6 -6 -6 5
3 27 11 27 2 0 7 -5 11 -12z m961 -14 c0 -7 -6 -10 -14 -7 -7 3 -13 8 -13 12
0 4 6 8 13 8 8 0 14 -6 14 -13z m4097 -2 c3 -5 -1 -9 -9 -9 -8 0 -15 4 -15 9
0 4 4 8 9 8 6 0 12 -4 15 -8z m-5244 -37 c14 -19 14 -19 -2 -6 -10 7 -18 18
-18 24 0 6 1 8 3 6 1 -2 9 -13 17 -24z m4111 8 c13 -16 12 -17 -3 -4 -10 7
-18 15 -18 17 0 8 8 3 21 -13z m1449 -58 c0 -2 -9 -3 -19 -2 -11 0 -18 5 -15
9 4 6 34 0 34 -7z m-5800 -17 c0 -6 -6 -5 -15 2 -8 7 -15 14 -15 16 0 2 7 1
15 -2 8 -4 15 -11 15 -16z m2124 -173 c-4 -8 -11 -12 -16 -9 -6 4 -6 9 2 14 9
5 5 10 -11 16 -13 4 -28 7 -32 6 -5 -1 -6 2 -2 8 10 16 66 -17 59 -35z m-2459
15 c3 -6 -1 -7 -9 -4 -18 7 -21 14 -7 14 6 0 13 -4 16 -10z m6600 -29 c3 -5 2
-12 -3 -15 -5 -3 -9 1 -9 9 0 17 3 19 12 6z m55 -46 c0 -8 -2 -15 -4 -15 -2 0
-6 7 -10 15 -3 8 -1 15 4 15 6 0 10 -7 10 -15z m47 -27 c-3 -8 -6 -5 -6 6 -1
11 2 17 5 13 3 -3 4 -12 1 -19z m-3953 -144 c3 -8 2 -12 -4 -9 -6 3 -10 10
-10 16 0 14 7 11 14 -7z m221 -204 c3 -5 1 -10 -4 -10 -6 0 -11 5 -11 10 0 6
2 10 4 10 3 0 8 -4 11 -10z m-3734 -187 c12 -16 12 -17 -2 -6 -9 7 -20 9 -24
5 -5 -4 -5 -1 -1 6 9 16 11 15 27 -5z m4160 -40 c12 -16 12 -17 -2 -6 -9 7
-20 9 -24 5 -5 -4 -5 -1 -1 6 9 16 11 15 27 -5z m-211 -69 c0 -8 -19 -13 -24
-6 -3 5 1 9 9 9 8 0 15 -2 15 -3z m-4050 -28 c0 -3 -4 -8 -10 -11 -5 -3 -10
-1 -10 4 0 6 5 11 10 11 6 0 10 -2 10 -4z m-173 -291 c0 -8 -4 -12 -9 -9 -5 3
-6 10 -3 15 9 13 12 11 12 -6z m8657 -161 c3 -8 0 -16 -7 -20 -7 -4 -9 -4 -5
1 4 4 0 13 -8 20 -15 11 -15 12 -1 12 9 0 18 -6 21 -13z m-8767 -166 c2 -18 0
-20 -7 -8 -12 18 -13 30 -2 30 4 0 9 -10 9 -22z m-37 -202 c0 -2 -7 -6 -15
-10 -8 -3 -15 -1 -15 4 0 6 7 10 15 10 8 0 15 -2 15 -4z m8913 -119 c4 3 7 1
7 -5 0 -20 -19 -13 -30 11 -10 20 -10 20 3 5 8 -10 17 -15 20 -11z m-8953 -47
c0 -5 -5 -10 -11 -10 -5 0 -7 5 -4 10 3 6 8 10 11 10 2 0 4 -4 4 -10z m-3
-235 c0 -8 -4 -15 -9 -15 -10 0 -11 14 -1 23 9 10 10 9 10 -8z m8940 -87 c-3
-8 -6 -5 -6 6 -1 11 2 17 5 13 3 -3 4 -12 1 -19z m-8892 -438 c3 -5 1 -10 -4
-10 -6 0 -11 5 -11 10 0 6 2 10 4 10 3 0 8 -4 11 -10z m8741 -365 c-1 -8 -8
-21 -16 -28 -10 -10 -11 -9 -4 3 5 8 9 18 10 23 3 14 4 17 8 17 2 0 3 -7 2
-15z m-8536 -235 c0 -5 -5 -10 -11 -10 -5 0 -7 5 -4 10 3 6 8 10 11 10 2 0 4
-4 4 -10z m54 -78 c3 -5 -1 -9 -9 -9 -8 0 -12 4 -9 9 3 4 7 8 9 8 2 0 6 -4 9
-8z m11 -70 c-3 -3 -11 0 -18 7 -9 10 -8 11 6 5 10 -3 15 -9 12 -12z m8245
-168 c0 -8 -19 -13 -24 -6 -3 5 1 9 9 9 8 0 15 -2 15 -3z m-30 -49 c0 -2 -10
-9 -22 -15 -22 -11 -22 -10 -4 4 21 17 26 19 26 11z m-8104 -20 c9 -8 11 -15
6 -15 -5 0 -15 7 -22 15 -7 8 -9 15 -6 15 4 0 14 -7 22 -15z m64 -115 c0 -5
-2 -10 -4 -10 -3 0 -8 5 -11 10 -3 6 -1 10 4 10 6 0 11 -4 11 -10z m204 -299
c4 -5 -3 -7 -14 -4 -23 6 -26 13 -6 13 8 0 17 -4 20 -9z m7566 -25 c0 -3 -4
-8 -10 -11 -5 -3 -10 -1 -10 4 0 6 5 11 10 11 6 0 10 -2 10 -4z m-7427 -171
c-3 -9 -8 -14 -10 -11 -3 3 -2 9 2 15 9 16 15 13 8 -4z m7147 -199 c0 -3 -4
-8 -10 -11 -5 -3 -10 -1 -10 4 0 6 5 11 10 11 6 0 10 -2 10 -4z m-6773 -252
c-3 -3 -12 -4 -19 -1 -8 3 -5 6 6 6 11 1 17 -2 13 -5z m6523 -47 c0 -2 -8 -11
-18 -20 -15 -14 -19 -15 -19 -2 0 8 4 12 9 9 4 -3 8 0 8 5 0 6 5 11 10 11 6 0
10 -2 10 -3z m-6007 -462 c4 -8 3 -16 -1 -19 -4 -3 -9 4 -9 15 -2 23 3 25 10
4z m37 -19 c0 -3 -4 -8 -10 -11 -5 -3 -10 -1 -10 4 0 6 5 11 10 11 6 0 10 -2
10 -4z m75 -85 c-6 -5 -25 10 -25 20 0 5 6 4 14 -3 8 -7 12 -15 11 -17z m5325
15 c0 -3 -4 -8 -10 -11 -5 -3 -10 -1 -10 4 0 6 5 11 10 11 6 0 10 -2 10 -4z
m-45 -26 c3 -6 -1 -7 -9 -4 -18 7 -21 14 -7 14 6 0 13 -4 16 -10z m-4390 -650
c-3 -5 -1 -10 4 -10 6 0 11 -5 11 -11 0 -8 -5 -8 -15 1 -13 11 -12 30 1 30 3
0 2 -4 -1 -10z m125 -54 c0 -2 -8 -10 -17 -17 -16 -13 -17 -12 -4 4 13 16 21
21 21 13z m90 -80 c0 -3 -4 -8 -10 -11 -5 -3 -10 -1 -10 4 0 6 5 11 10 11 6 0
10 -2 10 -4z m60 -30 c0 -2 -7 -7 -16 -10 -8 -3 -12 -2 -9 4 6 10 25 14 25 6z
m40 -42 c0 -22 -16 -17 -17 6 -1 11 2 18 8 15 5 -4 9 -13 9 -21z m40 -10 c0
-8 -19 -13 -24 -6 -3 5 1 9 9 9 8 0 15 -2 15 -3z m2707 -69 c0 -8 -4 -12 -9
-9 -5 3 -6 10 -3 15 9 13 12 11 12 -6z m33 1 c0 -3 -4 -8 -10 -11 -5 -3 -10
-1 -10 4 0 6 5 11 10 11 6 0 10 -2 10 -4z m-2365 -145 c3 -5 2 -12 -3 -15 -5
-3 -9 1 -9 9 0 17 3 19 12 6z m65 -45 c0 -3 -4 -8 -10 -11 -5 -3 -10 -1 -10 4
0 6 5 11 10 11 6 0 10 -2 10 -4z m395 -218 c5 4 5 1 1 -6 -5 -9 -12 -9 -27 -2
-10 6 -19 13 -19 16 0 2 8 0 19 -5 10 -6 22 -7 26 -3z m945 -88 c0 -5 -5 -10
-11 -10 -5 0 -7 5 -4 10 3 6 8 10 11 10 2 0 4 -4 4 -10z m-120 -70 c0 -4 -7
-11 -16 -14 -13 -5 -14 -4 -6 7 7 8 8 18 4 22 -4 5 -1 5 6 1 6 -4 12 -11 12
-16z m-60 -26 c0 -8 -19 -13 -24 -6 -3 5 1 9 9 9 8 0 15 -2 15 -3z"/>
<path d="M7250 8615 c-7 -9 -10 -18 -7 -21 3 -3 10 4 17 15 13 25 8 27 -10 6z"/>
<path d="M7316 8617 c3 -10 9 -15 12 -12 3 3 0 11 -7 18 -10 9 -11 8 -5 -6z"/>
<path d="M2735 8611 c-3 -5 -2 -12 3 -15 5 -3 9 1 9 9 0 17 -3 19 -12 6z"/>
<path d="M3230 8609 c0 -5 5 -7 10 -4 6 3 10 8 10 11 0 2 -4 4 -10 4 -5 0 -10
-5 -10 -11z"/>
<path d="M7003 8606 c-3 -5 -1 -6 5 -2 6 3 13 2 17 -4 7 -11 25 -4 25 10 0 11
-40 8 -47 -4z"/>
<path d="M3616 8577 c3 -10 9 -15 12 -12 3 3 0 11 -7 18 -10 9 -11 8 -5 -6z"/>
<path d="M3710 8552 c0 -5 7 -9 15 -9 8 0 12 4 9 9 -3 4 -9 8 -15 8 -5 0 -9
-4 -9 -8z"/>
<path d="M6460 8531 c0 -7 -5 -9 -12 -5 -7 5 -8 3 -3 -5 5 -9 10 -10 18 -2 6
6 8 14 4 18 -4 3 -7 1 -7 -6z"/>
<path d="M3986 8455 c3 -7 12 -16 19 -19 9 -3 12 0 9 9 -3 7 -12 16 -19 19 -9
3 -12 0 -9 -9z"/>
<path d="M2100 8450 c-12 -7 -10 -9 7 -7 12 0 19 5 17 9 -6 10 -6 10 -24 -2z"/>
<path d="M6214 8445 c-4 -10 -14 -14 -28 -10 -11 2 -15 2 -8 -1 6 -3 10 -10 6
-15 -3 -5 6 -4 19 2 13 6 24 17 24 25 0 18 -6 18 -13 -1z"/>
<path d="M8125 8430 c3 -5 8 -10 11 -10 2 0 4 5 4 10 0 6 -5 10 -11 10 -5 0
-7 -4 -4 -10z"/>
<path d="M8255 8390 c3 -5 8 -10 11 -10 2 0 4 5 4 10 0 6 -5 10 -11 10 -5 0
-7 -4 -4 -10z"/>
<path d="M8361 8338 c-1 -21 15 -32 25 -17 4 7 3 9 -4 5 -6 -3 -13 2 -15 11
-4 16 -5 16 -6 1z"/>
<path d="M5910 8290 c0 -5 5 -10 10 -10 6 0 10 5 10 10 0 6 -4 10 -10 10 -5 0
-10 -4 -10 -10z"/>
<path d="M1716 8257 c3 -10 9 -15 12 -12 3 3 0 11 -7 18 -10 9 -11 8 -5 -6z"/>
<path d="M1670 8236 c0 -2 7 -7 16 -10 8 -3 12 -2 9 4 -6 10 -25 14 -25 6z"/>
<path d="M1510 8126 c0 -2 8 -10 18 -17 15 -13 16 -12 3 4 -13 16 -21 21 -21
13z"/>
<path d="M1330 7970 c0 -5 5 -10 11 -10 5 0 7 5 4 10 -3 6 -8 10 -11 10 -2 0
-4 -4 -4 -10z"/>
<path d="M1310 7921 c-8 -6 -18 -7 -24 -4 -5 3 -6 1 -2 -5 7 -11 -6 -17 -27
-13 -5 1 -6 -3 -2 -9 7 -11 58 11 70 30 8 12 4 12 -15 1z"/>
<path d="M5435 7899 c3 -9 -1 -22 -10 -29 -8 -7 -15 -17 -15 -23 0 -5 10 2 21
17 17 21 19 30 10 39 -9 9 -11 8 -6 -4z"/>
<path d="M8956 7888 c3 -5 10 -6 15 -3 13 9 11 12 -6 12 -8 0 -12 -4 -9 -9z"/>
<path d="M4865 7810 c4 -6 11 -8 16 -5 14 9 11 15 -7 15 -8 0 -12 -5 -9 -10z"/>
<path d="M5290 7711 c0 -6 4 -13 10 -16 6 -3 7 1 4 9 -7 18 -14 21 -14 7z"/>
<path d="M5173 7533 c4 -6 -3 -22 -14 -37 -13 -17 -15 -24 -6 -20 21 8 39 51
25 60 -6 4 -8 3 -5 -3z"/>
<path d="M5066 7508 c3 -4 9 -8 15 -8 5 0 9 4 9 8 0 5 -7 9 -15 9 -8 0 -12 -4
-9 -9z"/>
<path d="M9420 7245 c-7 -9 -8 -15 -2 -15 5 0 12 7 16 15 3 8 4 15 2 15 -2 0
-9 -7 -16 -15z"/>
<path d="M684 6886 c1 -8 5 -18 8 -22 4 -3 5 1 4 10 -1 8 -5 18 -8 22 -4 3 -5
-1 -4 -10z"/>
<path d="M661 6748 c5 -10 11 -18 12 -18 2 0 3 8 3 18 0 10 -6 19 -13 19 -8 0
-9 -6 -2 -19z"/>
<path d="M644 5889 c-3 -6 -2 -15 4 -21 6 -6 12 -6 17 3 6 8 4 10 -5 4 -10 -6
-12 -4 -7 8 7 19 2 23 -9 6z"/>
<path d="M670 5736 c0 -2 8 -10 18 -17 15 -13 16 -12 3 4 -13 16 -21 21 -21
13z"/>
<path d="M730 5560 c-9 -6 -10 -10 -3 -10 6 0 15 5 18 10 8 12 4 12 -15 0z"/>
<path d="M730 5530 c0 -5 5 -10 10 -10 6 0 10 5 10 10 0 6 -4 10 -10 10 -5 0
-10 -4 -10 -10z"/>
<path d="M746 5408 c3 -5 10 -6 15 -3 13 9 11 12 -6 12 -8 0 -12 -4 -9 -9z"/>
<path d="M784 5382 c3 -5 0 -13 -6 -15 -9 -4 -10 -6 -1 -6 17 -1 25 16 12 25
-7 4 -9 3 -5 -4z"/>
<path d="M795 5310 c-3 -6 1 -7 10 -4 11 5 14 2 9 -12 -5 -15 -4 -16 4 -4 11
15 7 30 -8 30 -5 0 -12 -4 -15 -10z"/>
<path d="M9391 5244 c0 -11 3 -14 6 -6 3 7 2 16 -1 19 -3 4 -6 -2 -5 -13z"/>
<path d="M9315 5069 c-4 -6 -5 -12 -2 -15 2 -3 7 2 10 11 7 17 1 20 -8 4z"/>
<path d="M950 4972 c0 -5 7 -9 15 -9 8 0 12 4 9 9 -3 4 -9 8 -15 8 -5 0 -9 -4
-9 -8z"/>
<path d="M964 4938 c-4 -7 -3 -8 4 -4 10 6 16 -4 14 -25 -1 -3 5 -6 13 -6 11
0 10 5 -2 24 -18 26 -19 27 -29 11z"/>
<path d="M9136 4732 l-19 -27 29 25 c16 14 31 26 33 28 2 1 -2 2 -10 2 -8 0
-23 -13 -33 -28z"/>
<path d="M1263 4435 c0 -8 4 -12 9 -9 5 3 6 10 3 15 -9 13 -12 11 -12 -6z"/>
<path d="M8936 4402 c-3 -5 1 -9 9 -9 8 0 12 4 9 9 -3 4 -7 8 -9 8 -2 0 -6 -4
-9 -8z"/>
<path d="M1363 4290 c9 -6 14 -16 11 -22 -4 -7 -2 -8 4 -4 11 7 17 -6 13 -27
-1 -5 3 -6 9 -2 5 3 10 2 10 -3 0 -6 7 -13 17 -16 9 -4 1 11 -19 36 -19 23
-41 44 -49 46 -8 2 -6 -2 4 -8z"/>
<path d="M8710 4069 c0 -5 5 -7 10 -4 6 3 10 8 10 11 0 2 -4 4 -10 4 -5 0 -10
-5 -10 -11z"/>
<path d="M1735 3800 c-3 -6 1 -7 9 -4 18 7 21 14 7 14 -6 0 -13 -4 -16 -10z"/>
<path d="M8447 3774 c-8 -8 3 -34 15 -34 7 0 6 5 -1 13 -6 8 -8 17 -4 20 3 4
4 7 1 7 -2 0 -7 -3 -11 -6z"/>
<path d="M1870 3660 c-9 -6 -10 -10 -3 -10 6 0 15 5 18 10 8 12 4 12 -15 0z"/>
<path d="M7920 3235 c-7 -9 -8 -15 -2 -15 5 0 12 7 16 15 3 8 4 15 2 15 -2 0
-9 -7 -16 -15z"/>
<path d="M7875 3200 c-3 -5 -1 -10 4 -10 6 0 11 5 11 10 0 6 -2 10 -4 10 -3 0
-8 -4 -11 -10z"/>
<path d="M2666 2952 c-2 -4 -1 -14 4 -22 7 -11 9 -9 7 8 -1 24 -3 26 -11 14z"/>
<path d="M2710 2896 c0 -2 7 -7 16 -10 8 -3 12 -2 9 4 -6 10 -25 14 -25 6z"/>
<path d="M2953 2719 c-2 -19 11 -26 21 -10 3 5 0 14 -7 19 -10 8 -13 6 -14 -9z"/>
<path d="M7104 2588 c-3 -4 2 -8 10 -8 8 0 17 4 20 8 3 5 -2 9 -10 9 -8 0 -17
-4 -20 -9z"/>
<path d="M3238 2503 c7 -3 16 -2 19 1 4 3 -2 6 -13 5 -11 0 -14 -3 -6 -6z"/>
<path d="M6796 2381 c-3 -5 1 -11 9 -14 9 -4 12 -1 8 9 -6 16 -10 17 -17 5z"/>
<path d="M6706 2312 c-3 -5 1 -9 9 -9 8 0 12 4 9 9 -3 4 -7 8 -9 8 -2 0 -6 -4
-9 -8z"/>
<path d="M6636 2248 c3 -5 10 -6 15 -3 13 9 11 12 -6 12 -8 0 -12 -4 -9 -9z"/>
<path d="M6532 2217 c-8 -10 -6 -13 7 -13 11 0 17 6 14 13 -3 7 -6 13 -8 13
-1 0 -7 -6 -13 -13z"/>
<path d="M6336 2101 c-4 -5 -2 -12 3 -15 5 -4 12 -2 15 3 4 5 2 12 -3 15 -5 4
-12 2 -15 -3z"/>
<path d="M4030 2021 c0 -6 4 -13 10 -16 6 -3 7 1 4 9 -7 18 -14 21 -14 7z"/>
<path d="M4057 2009 c4 -13 8 -18 11 -10 2 7 -1 18 -6 23 -8 8 -9 4 -5 -13z"/>
<path d="M5890 1851 c0 -6 4 -12 8 -15 5 -3 9 1 9 9 0 8 -4 15 -9 15 -4 0 -8
-4 -8 -9z"/>
<path d="M4474 1779 c-4 -7 -3 -9 4 -5 5 3 13 0 15 -6 4 -9 6 -10 6 -1 1 17
-16 25 -25 12z"/>
<path d="M5666 1731 c-4 -5 -2 -12 3 -15 5 -4 12 -2 15 3 4 5 2 12 -3 15 -5 4
-12 2 -15 -3z"/>
<path d="M4640 1700 c-9 -6 -10 -10 -3 -10 6 0 15 5 18 10 8 12 4 12 -15 0z"/>
<path d="M4970 1529 c0 -5 5 -7 10 -4 6 3 10 8 10 11 0 2 -4 4 -10 4 -5 0 -10
-5 -10 -11z"/>
</g>
</svg>
